# xmcd
#
# Track frame offsets:
#	150
#	15300
#	33412
#	44300
#	61807
#	72945
#	82670
#	100495
#	118900
#	137555
#	164085
#
# Disc length: 2334 seconds
#
# Revision: 1
# Processed by: cddbd v1.4PL0 Copyright (c) Steve Scherf et al.
# Submitted via: audiograbber 1.80.04
#
DISCID=8c091c0b
DTITLE=K.K. - Lucky One
DYEAR=1991
DGENRE=Blues
TTITLE0=Lucky One
TTITLE1=True To You
TTITLE2=Wating For My Woman
TTITLE3=Blue Truck
TTITLE4=Night Song
TTITLE5=Rainbow
TTITLE6=Back Street Beat
TTITLE7=I Got A Woman
TTITLE8=Wake Me
TTITLE9=Crying
TTITLE10=Rubber Boots
EXTD=
EXTT0=
EXTT1=
EXTT2=
EXTT3=
EXTT4=
EXTT5=
EXTT6=
EXTT7=
EXTT8=
EXTT9=
EXTT10=
PLAYORDER=
